<svg version="1.1" id="Layer_1" xmlns="http://www.w3.org/2000/svg" xmlns:xlink="http://www.w3.org/1999/xlink" x="0px" y="0px"
	 width="100%" viewBox="0 0 310 96" enable-background="new 0 0 310 96" xml:space="preserve">
<path fill="#FDFEFD" opacity="1.000000" stroke="none" 
	d="
M65.000000,1.000000 
	C146.955307,1.000000 228.910599,1.000000 310.932953,1.000000 
	C310.932953,32.937744 310.932953,64.875664 310.932953,96.906792 
	C207.785202,96.906792 104.570297,96.906792 1.177698,96.906792 
	C1.177698,65.000732 1.177698,33.000492 1.177698,1.000000 
	C19.082230,1.000000 37.072456,1.000000 55.437878,1.364266 
	C51.003891,3.507801 45.919266,4.769959 41.434734,7.158710 
	C24.841354,15.997414 16.916681,36.107937 22.484121,54.774612 
	C27.876238,72.853432 43.848389,84.414360 62.236324,83.744484 
	C82.722824,82.998154 99.284973,66.558792 100.841988,46.624172 
	C102.476189,25.701454 89.606239,7.933604 69.243752,2.894195 
	C67.763565,2.527872 66.411583,1.643510 65.000000,1.000000 
M116.000000,51.999878 
	C116.000000,51.999878 116.009689,52.008682 115.990166,52.500603 
	C115.990166,52.500603 116.010506,52.992493 116.000000,53.000187 
	C116.000000,53.000187 115.992386,53.010956 115.414757,53.386978 
	C115.043304,54.784996 114.671852,56.183014 114.300400,57.581032 
	C114.688309,57.738373 115.076210,57.895718 115.464119,58.053059 
	C116.311684,57.038239 117.159256,56.023415 118.000000,55.000076 
	C118.000000,55.000076 117.991516,54.993656 117.981316,55.593842 
	C118.368759,55.980659 118.756203,56.367477 119.143646,56.754292 
	C119.582634,54.567619 120.821175,52.105473 120.194313,50.286015 
	C119.736168,48.956249 116.823746,48.472061 115.005310,47.610954 
	C114.699715,48.044456 114.394112,48.477955 114.088509,48.911457 
	C114.722702,49.937653 115.356895,50.963848 116.000000,51.999878 
M213.000000,50.000000 
	C213.000000,50.000000 213.000977,50.000957 212.871216,49.299381 
	C210.101654,46.524181 207.943161,48.608360 207.316116,50.851421 
	C206.832687,52.580799 207.769592,55.546734 209.139938,56.762184 
	C211.309128,58.686199 213.883881,57.608578 215.280991,55.037872 
	C216.640152,52.536957 216.303818,50.524784 213.000000,50.000000 
M204.833633,20.305244 
	C205.140778,24.072609 205.682877,27.838923 205.699722,31.607588 
	C205.724670,37.189503 205.889816,37.441891 211.992233,35.988483 
	C211.992233,29.179422 212.110825,22.249065 211.866348,15.331537 
	C211.829025,14.275571 209.989563,12.355942 209.199829,12.461001 
	C207.856613,12.639696 206.421890,13.909568 205.519180,15.096343 
	C204.694992,16.179873 204.525192,17.761154 203.373215,18.724352 
	C200.167816,17.947577 198.367889,18.994226 197.972366,22.470881 
	C197.772720,24.225685 196.978256,25.912819 196.517273,27.419636 
	C192.555710,25.155107 196.508453,16.915245 188.495331,18.884354 
	C187.522110,21.715532 186.582657,24.448498 185.365936,27.988008 
	C182.596878,23.927244 184.951019,16.728775 176.928696,19.102945 
	C178.262726,24.129578 179.388855,29.121351 181.006592,33.948353 
	C181.417160,35.173363 183.390396,36.603336 184.648926,36.606499 
	C185.859848,36.609547 187.520920,35.123726 188.185745,33.869007 
	C189.228119,31.901758 189.599106,29.578766 190.516983,26.536209 
	C191.497864,29.379631 191.920624,31.533897 192.962967,33.328243 
	C193.773926,34.724247 195.340088,36.555592 196.601059,36.579380 
	C197.962433,36.605068 200.139908,35.020012 200.598221,33.673576 
	C202.143051,29.135265 203.082306,24.390818 204.833633,20.305244 
M158.500000,65.973740 
	C167.824203,65.973717 177.148392,65.973694 186.472595,65.973679 
	C195.796783,65.973671 205.120972,65.973701 214.445160,65.973648 
	C223.935852,65.973595 233.426529,65.973419 242.917221,65.973373 
	C252.241409,65.973328 261.565582,65.982315 270.889771,65.970818 
	C279.974396,65.959618 289.059052,65.927490 298.143677,65.904549 
	C298.116608,65.193146 298.089539,64.481750 298.062469,63.770351 
	C236.498062,63.770351 174.933640,63.770351 113.369217,63.770351 
	C113.349121,64.501694 113.329025,65.233040 113.308922,65.964386 
	C128.038696,65.983299 142.769730,65.968414 158.500000,65.973740 
M115.128120,21.132481 
	C112.803329,33.833981 122.825638,39.643478 134.344925,35.918060 
	C135.613373,35.507835 137.202515,33.930141 137.374939,32.714115 
	C137.809250,29.651293 137.518723,26.485683 137.518723,23.297710 
	C134.016159,23.297710 131.097137,23.297710 126.933395,23.297710 
	C128.235413,25.229727 129.037979,26.353735 129.767349,27.523390 
	C130.387726,28.518251 130.923721,29.565714 131.497040,30.589911 
	C130.430344,31.134941 129.387726,32.087204 128.292633,32.151970 
	C124.315987,32.387157 121.561165,29.633272 121.188911,25.392303 
	C120.777550,20.705873 123.231308,16.997068 127.485497,16.791826 
	C130.369354,16.652697 133.300125,17.486223 136.391083,17.909554 
	C137.363434,15.238358 136.790390,13.557165 133.516785,12.654564 
	C125.233192,10.370617 118.727806,12.981581 115.128120,21.132481 
M158.096710,34.457092 
	C159.074448,35.078976 159.975266,35.955528 161.043396,36.278194 
	C165.425430,37.601955 169.673828,37.531860 172.993851,33.840767 
	C175.671753,30.863567 175.846497,24.930365 173.328293,21.675367 
	C170.260681,17.710230 166.005997,17.324633 161.575333,18.634830 
	C155.466660,20.441240 153.843735,26.866343 158.096710,34.457092 
M216.951324,16.301205 
	C216.037903,18.008776 214.152954,21.079220 214.354401,21.222813 
	C218.440536,24.135571 216.477188,28.426861 217.122589,32.065620 
	C217.809982,35.941189 223.662094,38.778431 226.876053,36.536903 
	C227.603119,36.029812 227.340393,32.618656 227.225281,32.601421 
	C220.580124,31.606539 223.678574,26.886106 223.386917,24.268766 
	C225.592178,22.767565 227.246140,21.641651 228.900101,20.515745 
	C227.293289,19.442537 225.686462,18.369329 223.313934,16.784691 
	C223.182770,16.346663 222.731720,14.840304 221.919540,12.127933 
	C219.911072,13.495106 218.446411,14.492115 216.951324,16.301205 
M146.937836,36.476952 
	C147.180954,34.059471 147.635208,31.640783 147.621414,29.224768 
	C147.595901,24.754433 149.234161,22.247772 154.094391,22.818785 
	C154.316345,22.844864 154.587921,22.448759 155.093460,22.042898 
	C154.919098,20.834892 154.721817,19.468235 154.562317,18.363308 
	C150.139420,18.584255 146.220337,18.780035 141.905746,18.995571 
	C141.905746,23.685631 142.111664,28.293550 141.838211,32.872849 
	C141.632843,36.311970 143.012787,37.327412 146.937836,36.476952 
M286.735779,56.956074 
	C288.459320,56.641899 290.182861,56.327728 293.169006,55.783405 
	C291.665314,52.930756 290.689148,50.466492 289.080780,48.526302 
	C288.744965,48.121204 286.069611,49.640717 284.494171,50.323650 
	C284.418518,50.356449 284.554626,50.877655 284.590881,51.161877 
	C286.059845,51.161877 287.508850,51.161877 288.730103,51.161877 
	C288.730103,52.410500 288.730103,53.579132 288.730103,54.833378 
	C287.594849,54.955051 286.163330,55.108475 284.032135,55.336891 
	C285.077118,56.132542 285.561737,56.501526 286.735779,56.956074 
z"/>
<path fill="#376C43" opacity="1.000000" stroke="none" 
	d="
M64.550018,1.000000 
	C66.411583,1.643510 67.763565,2.527872 69.243752,2.894195 
	C89.606239,7.933604 102.476189,25.701454 100.841988,46.624172 
	C99.284973,66.558792 82.722824,82.998154 62.236324,83.744484 
	C43.848389,84.414360 27.876238,72.853432 22.484121,54.774612 
	C16.916681,36.107937 24.841354,15.997414 41.434734,7.158710 
	C45.919266,4.769959 51.003891,3.507801 55.906536,1.364266 
	C58.700016,1.000000 61.400028,1.000000 64.550018,1.000000 
M70.994728,33.356453 
	C70.997620,32.921322 71.000511,32.486187 71.459465,31.906946 
	C71.459465,31.906946 71.931793,31.982244 72.502647,31.667212 
	C72.269226,30.798983 72.035805,29.930754 71.258118,28.670794 
	C67.870201,23.097588 64.482285,17.524380 60.774082,11.424291 
	C56.479900,18.571121 52.684311,24.888147 48.413025,31.996876 
	C52.436604,31.996876 55.354256,31.996876 58.718857,31.996876 
	C58.718857,38.858395 58.646057,45.304249 58.788490,51.745342 
	C58.813046,52.855675 59.751915,53.945786 60.268444,55.045242 
	C61.226608,54.359016 62.184772,53.672791 63.600510,52.537807 
	C63.453812,51.362980 63.307110,50.188148 63.037811,48.130970 
	C63.078140,45.758125 63.118469,43.385284 63.824814,40.992912 
	C64.269478,40.965626 64.714134,40.938339 65.717369,41.272968 
	C69.484856,45.225937 73.673645,48.363834 79.506721,48.119015 
	C83.599495,47.947239 85.259102,45.162758 82.433640,42.328083 
	C79.146675,39.030399 74.851166,36.737968 70.994728,33.356453 
M41.741661,48.115894 
	C48.046707,48.279449 53.057091,45.781879 56.248341,40.363281 
	C58.330517,36.827843 56.935406,34.263592 53.301270,34.024956 
	C48.628025,33.718086 40.940411,38.141655 38.864868,42.367043 
	C37.601479,44.939041 37.330688,47.200001 41.741661,48.115894 
z"/>
<path fill="#5B8566" opacity="1.000000" stroke="none" 
	d="
M158.000000,65.973755 
	C142.769730,65.968414 128.038696,65.983299 113.308922,65.964386 
	C113.329025,65.233040 113.349121,64.501694 113.369217,63.770351 
	C174.933640,63.770351 236.498062,63.770351 298.062469,63.770351 
	C298.089539,64.481750 298.116608,65.193146 298.143677,65.904549 
	C289.059052,65.927490 279.974396,65.959618 270.889771,65.970818 
	C261.565582,65.982315 252.241409,65.973328 242.917221,65.973373 
	C233.426529,65.973419 223.935852,65.973595 214.445160,65.973648 
	C205.120972,65.973701 195.796783,65.973671 186.472595,65.973679 
	C177.148392,65.973694 167.824203,65.973717 158.000000,65.973755 
z"/>
<path fill="#43724F" opacity="1.000000" stroke="none" 
	d="
M115.209808,20.727852 
	C118.727806,12.981581 125.233192,10.370617 133.516785,12.654564 
	C136.790390,13.557165 137.363434,15.238358 136.391083,17.909554 
	C133.300125,17.486223 130.369354,16.652697 127.485497,16.791826 
	C123.231308,16.997068 120.777550,20.705873 121.188911,25.392303 
	C121.561165,29.633272 124.315987,32.387157 128.292633,32.151970 
	C129.387726,32.087204 130.430344,31.134941 131.497040,30.589909 
	C130.923721,29.565714 130.387726,28.518251 129.767349,27.523390 
	C129.037979,26.353735 128.235413,25.229727 126.933395,23.297710 
	C131.097137,23.297710 134.016159,23.297710 137.518723,23.297710 
	C137.518723,26.485683 137.809250,29.651293 137.374939,32.714115 
	C137.202515,33.930141 135.613373,35.507835 134.344925,35.918060 
	C122.825638,39.643478 112.803329,33.833981 115.209808,20.727852 
z"/>
<path fill="#447350" opacity="1.000000" stroke="none" 
	d="
M204.253189,19.725216 
	C203.082306,24.390818 202.143051,29.135265 200.598221,33.673576 
	C200.139908,35.020012 197.962433,36.605068 196.601059,36.579380 
	C195.340088,36.555592 193.773926,34.724247 192.962967,33.328243 
	C191.920624,31.533897 191.497864,29.379631 190.516983,26.536209 
	C189.599106,29.578766 189.228119,31.901758 188.185745,33.869007 
	C187.520920,35.123726 185.859848,36.609547 184.648926,36.606499 
	C183.390396,36.603336 181.417160,35.173363 181.006592,33.948353 
	C179.388855,29.121351 178.262726,24.129578 176.928696,19.102945 
	C184.951019,16.728775 182.596878,23.927244 185.365936,27.988008 
	C186.582657,24.448498 187.522110,21.715532 188.495331,18.884354 
	C196.508453,16.915245 192.555710,25.155107 196.517273,27.419636 
	C196.978256,25.912819 197.772720,24.225685 197.972366,22.470881 
	C198.367889,18.994226 200.167816,17.947577 203.695786,19.032597 
	C204.018356,19.340839 204.253189,19.725218 204.253189,19.725216 
z"/>
<path fill="#42724E" opacity="1.000000" stroke="none" 
	d="
M157.824310,34.184498 
	C153.843735,26.866343 155.466660,20.441240 161.575333,18.634830 
	C166.005997,17.324633 170.260681,17.710230 173.328293,21.675367 
	C175.846497,24.930365 175.671753,30.863567 172.993851,33.840767 
	C169.673828,37.531860 165.425430,37.601955 161.043396,36.278194 
	C159.975266,35.955528 159.074448,35.078976 157.824310,34.184498 
M164.757172,32.795338 
	C170.049896,32.126442 169.340637,28.219381 168.461746,24.934692 
	C168.160004,23.807055 165.021164,22.235788 164.068710,22.698734 
	C160.455963,24.454765 161.260330,27.839682 162.285400,30.912035 
	C162.510529,31.586765 163.432449,32.029007 164.757172,32.795338 
z"/>
<path fill="#DAAC57" opacity="1.000000" stroke="none" 
	d="
M216.966537,15.895164 
	C218.446411,14.492115 219.911072,13.495106 221.919540,12.127933 
	C222.731720,14.840304 223.182770,16.346663 223.313934,16.784691 
	C225.686462,18.369329 227.293289,19.442537 228.900101,20.515741 
	C227.246140,21.641651 225.592178,22.767565 223.386917,24.268766 
	C223.678574,26.886106 220.580124,31.606539 227.225281,32.601421 
	C227.340393,32.618656 227.603119,36.029812 226.876053,36.536903 
	C223.662094,38.778431 217.809982,35.941189 217.122589,32.065620 
	C216.477188,28.426861 218.440536,24.135571 214.354401,21.222813 
	C214.152954,21.079220 216.037903,18.008776 216.966537,15.895164 
z"/>
<path fill="#D8A950" opacity="1.000000" stroke="none" 
	d="
M204.543411,20.015232 
	C204.253189,19.725218 204.018356,19.340839 204.042664,19.231955 
	C204.525192,17.761154 204.694992,16.179873 205.519180,15.096343 
	C206.421890,13.909568 207.856613,12.639696 209.199829,12.461001 
	C209.989563,12.355942 211.829025,14.275571 211.866348,15.331537 
	C212.110825,22.249065 211.992233,29.179422 211.992233,35.988483 
	C205.889816,37.441891 205.724670,37.189503 205.699722,31.607588 
	C205.682877,27.838923 205.140778,24.072609 204.543411,20.015232 
z"/>
<path fill="#467351" opacity="1.000000" stroke="none" 
	d="
M146.533966,36.624775 
	C143.012787,37.327412 141.632843,36.311970 141.838211,32.872849 
	C142.111664,28.293550 141.905746,23.685631 141.905746,18.995571 
	C146.220337,18.780035 150.139420,18.584255 154.562317,18.363308 
	C154.721817,19.468235 154.919098,20.834892 155.093460,22.042898 
	C154.587921,22.448759 154.316345,22.844864 154.094391,22.818785 
	C149.234161,22.247772 147.595901,24.754433 147.621414,29.224768 
	C147.635208,31.640783 147.180954,34.059471 146.533966,36.624775 
z"/>
<path fill="#F0F0F0" opacity="1.000000" stroke="none" 
	d="
M212.998932,49.998981 
	C216.303818,50.524784 216.640152,52.536957 215.280991,55.037872 
	C213.883881,57.608578 211.309128,58.686199 209.139938,56.762184 
	C207.769592,55.546734 206.832687,52.580799 207.316116,50.851421 
	C207.943161,48.608360 210.101654,46.524181 212.534225,49.650375 
	C207.705948,50.047832 209.041550,52.780491 209.421646,55.217545 
	C213.813477,55.308395 212.863846,52.320805 212.998932,49.998981 
z"/>
<path fill="#E9E9E9" opacity="1.000000" stroke="none" 
	d="
M116.010506,52.992493 
	C116.010506,52.992493 115.990166,52.500603 116.279114,52.204777 
	C116.888245,51.606548 117.208427,51.304146 117.528610,51.001740 
	C117.321297,50.821148 117.113976,50.640556 116.906654,50.459961 
	C116.601463,50.969990 116.296272,51.480015 115.991089,51.990044 
	C115.356895,50.963848 114.722702,49.937653 114.088509,48.911457 
	C114.394112,48.477955 114.699715,48.044456 115.005310,47.610954 
	C116.823746,48.472061 119.736168,48.956249 120.194313,50.286015 
	C120.821175,52.105473 119.582634,54.567619 119.143646,56.754292 
	C118.756203,56.367477 118.368759,55.980659 118.123871,55.237644 
	C118.179893,54.923828 118.093353,54.966209 118.006821,55.008591 
	C117.159256,56.023415 116.311684,57.038239 115.464119,58.053059 
	C115.076210,57.895718 114.688309,57.738373 114.300400,57.581032 
	C114.671852,56.183014 115.043304,54.784996 115.770889,53.331726 
	C116.209442,53.328255 116.291862,53.380035 116.374283,53.431816 
	C116.253021,53.285374 116.131767,53.138931 116.010506,52.992493 
z"/>
<path fill="#F0F0F0" opacity="1.000000" stroke="none" 
	d="
M286.391052,56.913292 
	C285.561737,56.501526 285.077118,56.132542 284.032135,55.336891 
	C286.163330,55.108475 287.594849,54.955051 288.730103,54.833378 
	C288.730103,53.579132 288.730103,52.410500 288.730103,51.161877 
	C287.508850,51.161877 286.059845,51.161877 284.590881,51.161877 
	C284.554626,50.877655 284.418518,50.356449 284.494171,50.323650 
	C286.069611,49.640717 288.744965,48.121204 289.080780,48.526302 
	C290.689148,50.466492 291.665314,52.930756 293.169006,55.783405 
	C290.182861,56.327728 288.459320,56.641899 286.391052,56.913292 
z"/>
<path fill="#F5FAF7" opacity="1.000000" stroke="none" 
	d="
M71.931793,31.982244 
	C71.931793,31.982244 71.459465,31.906946 70.784821,31.882479 
	C67.881668,31.858011 65.653152,31.858011 63.158798,31.858011 
	C63.158798,35.225159 63.158798,38.118797 63.158798,41.012440 
	C63.118469,43.385284 63.078140,45.758125 63.024933,48.965218 
	C63.055683,50.861828 63.099308,51.924194 63.142937,52.986565 
	C62.184772,53.672791 61.226608,54.359016 60.268444,55.045242 
	C59.751915,53.945786 58.813046,52.855675 58.788490,51.745342 
	C58.646057,45.304249 58.718857,38.858395 58.718857,31.996876 
	C55.354256,31.996876 52.436604,31.996876 48.413025,31.996876 
	C52.684311,24.888147 56.479900,18.571121 60.774082,11.424291 
	C64.482285,17.524380 67.870201,23.097588 71.603813,29.237314 
	C71.943604,30.529972 71.937698,31.256107 71.931793,31.982244 
z"/>
<path fill="#69B17C" opacity="1.000000" stroke="none" 
	d="
M41.323349,48.087639 
	C37.330688,47.200001 37.601479,44.939041 38.864868,42.367043 
	C40.940411,38.141655 48.628025,33.718086 53.301270,34.024956 
	C56.935406,34.263592 58.330517,36.827843 56.248341,40.363281 
	C53.057091,45.781879 48.046707,48.279449 41.323349,48.087639 
z"/>
<path fill="#69B17D" opacity="1.000000" stroke="none" 
	d="
M70.993355,34.009274 
	C74.851166,36.737968 79.146675,39.030399 82.433640,42.328083 
	C85.259102,45.162758 83.599495,47.947239 79.506721,48.119015 
	C73.673645,48.363834 69.484856,45.225937 65.380753,40.681248 
	C63.973431,35.074810 66.687325,33.763130 70.993355,34.009274 
z"/>
<path fill="#436F4F" opacity="1.000000" stroke="none" 
	d="
M70.994041,33.682861 
	C66.687325,33.763130 63.973431,35.074810 65.101471,40.500290 
	C64.714134,40.938339 64.269478,40.965626 63.491806,41.002678 
	C63.158798,38.118797 63.158798,35.225159 63.158798,31.858011 
	C65.653152,31.858011 67.881668,31.858011 70.556793,31.954533 
	C71.000511,32.486187 70.997620,32.921322 70.994041,33.682861 
z"/>
<path fill="#436F4F" opacity="1.000000" stroke="none" 
	d="
M63.371723,52.762184 
	C63.099308,51.924194 63.055683,50.861828 63.086235,49.406391 
	C63.307110,50.188148 63.453812,51.362980 63.371723,52.762184 
z"/>
<path fill="#436F4F" opacity="1.000000" stroke="none" 
	d="
M72.217224,31.824728 
	C71.937698,31.256107 71.943604,30.529972 71.875946,29.433182 
	C72.035805,29.930754 72.269226,30.798983 72.217224,31.824728 
z"/>
<path fill="#ECF3EE" opacity="1.000000" stroke="none" 
	d="
M164.395325,32.686825 
	C163.432449,32.029007 162.510529,31.586765 162.285400,30.912035 
	C161.260330,27.839682 160.455963,24.454765 164.068710,22.698734 
	C165.021164,22.235788 168.160004,23.807055 168.461746,24.934692 
	C169.340637,28.219381 170.049896,32.126442 164.395325,32.686825 
z"/>
<path fill="#FDFEFD" opacity="1.000000" stroke="none" 
	d="
M212.999466,49.999489 
	C212.863846,52.320805 213.813477,55.308395 209.421646,55.217545 
	C209.041550,52.780491 207.705948,50.047832 212.599106,50.001160 
	C213.000977,50.000957 213.000000,50.000000 212.999466,49.999489 
z"/>
<path fill="#FDFEFD" opacity="1.000000" stroke="none" 
	d="
M115.995544,51.994961 
	C116.296272,51.480015 116.601463,50.969990 116.906654,50.459961 
	C117.113976,50.640556 117.321297,50.821148 117.528610,51.001740 
	C117.208427,51.304146 116.888245,51.606548 116.288879,51.958817 
	C116.009689,52.008682 116.000000,51.999878 115.995544,51.994961 
z"/>
<path fill="#FDFEFD" opacity="1.000000" stroke="none" 
	d="
M116.005249,52.996338 
	C116.131767,53.138931 116.253021,53.285374 116.374283,53.431816 
	C116.291862,53.380035 116.209442,53.328255 116.059708,53.143715 
	C115.992386,53.010956 116.000000,53.000187 116.005249,52.996338 
z"/>
<path fill="#FDFEFD" opacity="1.000000" stroke="none" 
	d="
M118.003410,55.004333 
	C118.093353,54.966209 118.179893,54.923828 118.128975,54.937553 
	C117.991516,54.993656 118.000000,55.000076 118.003410,55.004333 
z"/>
</svg>